# xmcd CD database file
# Copyright (C) 1997 Ti Kan
# 
# Track frame offsets:
#     183
#     10103
#     23830
#     35720
#     48898
#     61975
#     78818
#     95198
#     106573
#     118288
#     134243
#     144003
# 
# Disc length: 2125 seconds
# 
# Revision: 1
# Processed by: cddbd v1.4b41PL1 Copyright (c) Steve Scherf et al.
# Submitted via: DiscPlay 4.0.3
# 
DISCID=9a084b0c
DTITLE=Ruth Brown - Help A Good Girl Go Bad
DYEAR=1900
DGENRE=
TTITLE0=He's A Real Gone Guy
TTITLE1=On The Good Ship Lollipop
TTITLE2=Help A Good Girl Go Bad
TTITLE3=Porgy
TTITLE4=What Am I Looking For
TTITLE5=Here's That Rainy Day
TTITLE6=Hurry On Down
TTITLE7=Table For Two
TTITLE8=What Do You Know (Qulen Sabes Tu)
TTITLE9=Whispering Grass (Don't Tell The Trees)
TTITLE10=Watch It
TTITLE11=I Know Why (And So Do You)
EXTD=
EXTT0=
EXTT1=
EXTT2=
EXTT3=
EXTT4=
EXTT5=
EXTT6=
EXTT7=
EXTT8=
EXTT9=
EXTT10=
EXTT11=
PLAYORDER=
